<svg width="20" height="21" viewBox="0 0 20 21" fill="none" xmlns="http://www.w3.org/2000/svg">
<g id="Admin">
<circle id="Ellipse 310" cx="10" cy="4.5" r="4" fill="#F36B24"/>
<path id="Intersect" fill-rule="evenodd" clip-rule="evenodd" d="M1.5363 16.7184C0.46693 15.5433 0.574318 13.7377 1.75734 12.6772C3.96531 10.6979 6.84725 9.5 10 9.5C13.1528 9.5 16.0347 10.6979 18.2427 12.6772C19.4257 13.7377 19.5331 15.5433 18.4637 16.7184C16.3451 19.0463 13.3369 20.5 10 20.5C6.66312 20.5 3.65488 19.0463 1.5363 16.7184Z" fill="#F36B24"/>
<path id="Vector 2566" d="M12.5046 8.5434L10.2606 9.14449C10.1309 9.17922 10.0716 9.32934 10.1425 9.44334L12.4969 13.2271C12.5751 13.3529 12.7582 13.3529 12.8365 13.2271L13.9427 11.4492C13.9785 11.3918 13.9828 11.3202 13.9542 11.2589L12.7376 8.65202C12.6966 8.56409 12.5983 8.5183 12.5046 8.5434Z" fill="#FFC4AA"/>
<path id="Vector 2567" d="M7.49538 8.5434L9.73942 9.14449C9.8691 9.17922 9.92841 9.32934 9.85748 9.44334L7.50314 13.2271C7.42488 13.3529 7.24179 13.3529 7.16352 13.2271L6.05726 11.4492C6.02154 11.3918 6.01724 11.3202 6.04583 11.2589L7.26239 8.65202C7.30342 8.56409 7.40165 8.5183 7.49538 8.5434Z" fill="#FFC4AA"/>
</g>
</svg>
