<svg width="158" height="118" viewBox="0 0 158 118" fill="none" xmlns="http://www.w3.org/2000/svg">
<g id="Group 48097710">
<path id="Union" fill-rule="evenodd" clip-rule="evenodd" d="M65.6055 34.5C51.464 34.5 40 45.9895 40 60.1626C40 71.0562 46.7726 80.3645 56.3281 84.0889V96.5195C56.3281 98.9179 59.0144 100.331 60.9837 98.9679L79.6623 86.042C79.7618 85.9732 79.8551 85.9008 79.9423 85.8251H109.395C123.536 85.8251 135 74.3356 135 60.1626C135 45.9895 123.536 34.5 109.395 34.5H65.6055Z" fill="#FFEEE7"/>
<path id="Union_2" fill-rule="evenodd" clip-rule="evenodd" d="M34.5 0.5C15.4462 0.5 0 15.9462 0 35C0 49.6451 9.12522 62.159 22 67.1658V83.8772C22 87.1016 25.6194 89.0009 28.2728 87.1688L53.4398 69.7916C53.5737 69.6991 53.6994 69.6017 53.817 69.5H93.5C112.554 69.5 128 54.0538 128 35C128 15.9462 112.554 0.5 93.5 0.5H34.5Z" fill="#F36B24"/>
<circle id="Ellipse 2433" cx="65" cy="33.5" r="8" fill="white"/>
<circle id="Ellipse 2434" cx="36" cy="33.5" r="8" fill="white"/>
<g id="Search">
<path id="Subtract" fill-rule="evenodd" clip-rule="evenodd" d="M122.449 84.6676C135.683 74.385 138.076 55.321 127.793 42.087C117.51 28.8529 98.4464 26.4603 85.2123 36.743C71.9783 47.0256 69.5857 66.0896 79.8684 79.3237C90.151 92.5577 109.215 94.9503 122.449 84.6676ZM115.747 76.0412C124.216 69.4603 125.748 57.2594 119.167 48.7896C112.586 40.3198 100.385 38.7885 91.915 45.3694C83.4452 51.9503 81.914 64.1513 88.4949 72.6211C95.0757 81.0909 107.277 82.6221 115.747 76.0412Z" fill="#FFC4AA"/>
<circle id="Ellipse 2437" cx="103.831" cy="60.7053" r="19.421" transform="rotate(-37.8466 103.831 60.7053)" fill="white"/>
<rect id="Rectangle 8099" x="113.505" y="87.0054" width="15.7796" height="21.8486" rx="4.85525" transform="rotate(-37.8466 113.505 87.0054)" fill="#FFC4AA"/>
</g>
</g>
</svg>
