<svg width="16" height="16" viewBox="0 0 16 16" fill="none" xmlns="http://www.w3.org/2000/svg">
<g id="Component 50">
<path id="Vector" d="M13.5702 15.9982H2.42983C1.63948 15.9982 1 15.3454 1 14.5384V6.00891C1 5.50831 1.25031 5.04271 1.6652 4.77491L7.15307 1.22692C7.61425 0.927603 8.20402 0.924101 8.66863 1.21816L14.3211 4.77841C14.7428 5.04446 15 5.51531 15 6.02117V14.5402C15 15.3471 14.3605 16 13.5702 16V15.9982Z" fill="#556A82"/>
<path id="Vector_2" d="M6.81182 11H9.18818C9.63547 11 10 11.3096 10 11.6931V16H6V11.6931C6 11.3112 6.36256 11 6.81182 11Z" fill="#9EBBD1"/>
<path id="Union" fill-rule="evenodd" clip-rule="evenodd" d="M7.36557 4H8.62684C8.7487 4 8.84749 4.09879 8.84749 4.22065V5.14786H9.77935C9.90121 5.14786 10 5.24665 10 5.36851V6.62979C10 6.75165 9.90121 6.85043 9.77935 6.85043H8.84749V7.77935C8.84749 7.90121 8.7487 8 8.62684 8H7.36557C7.24371 8 7.14492 7.90121 7.14492 7.77935V6.85043H6.22065C6.09879 6.85043 6 6.75165 6 6.62979V5.36851C6 5.24665 6.09879 5.14786 6.22065 5.14786H7.14492V4.22065C7.14492 4.09879 7.24371 4 7.36557 4Z" fill="#E8F2F9"/>
</g>
</svg>
