<svg width="32" height="32" viewBox="0 0 32 32" fill="none" xmlns="http://www.w3.org/2000/svg">
<g id="Icon 32 px / File">
<path id="Vector" d="M25 15.376L16.0172 24.2938C14.9168 25.3862 13.4242 26 11.868 26C10.3117 26 8.81914 25.3862 7.71869 24.2938C6.61823 23.2013 6 21.7195 6 20.1745C6 18.6295 6.61823 17.1477 7.71869 16.0553L16.7014 7.1375C17.4351 6.40917 18.4301 6 19.4676 6C20.5052 6 21.5002 6.40917 22.2338 7.1375C22.9675 7.86583 23.3796 8.85365 23.3796 9.88366C23.3796 10.9137 22.9675 11.9015 22.2338 12.6298L13.2413 21.5476C12.8745 21.9118 12.3769 22.1163 11.8582 22.1163C11.3394 22.1163 10.8419 21.9118 10.4751 21.5476C10.1083 21.1834 9.9022 20.6895 9.9022 20.1745C9.9022 19.6595 10.1083 19.1656 10.4751 18.8014L18.7736 10.5726" stroke="#FFC4AA" stroke-width="1.70402" stroke-linecap="round" stroke-linejoin="round"/>
</g>
</svg>
