<svg width="32" height="32" viewBox="0 0 32 32" fill="none" xmlns="http://www.w3.org/2000/svg">
<g id="Icon 32 px / Sticker">
<circle id="Ellipse 2397" cx="16" cy="16" r="13" fill="#FFEEE7"/>
<g id="Shape">
<path d="M10.5636 17.1455C11.0841 16.7551 11.8219 16.859 12.2145 17.3769L12.2199 17.3839C12.227 17.3928 12.2403 17.4094 12.2599 17.4327C12.2991 17.4794 12.3626 17.5522 12.4491 17.6425C12.6232 17.8242 12.8848 18.0706 13.2235 18.3169C13.9055 18.8129 14.8483 19.2727 16 19.2727C17.1516 19.2727 18.0945 18.8129 18.7765 18.3169C19.1152 18.0706 19.3768 17.8242 19.5508 17.6425C19.6374 17.5522 19.7009 17.4794 19.7401 17.4327C19.7596 17.4094 19.773 17.3928 19.78 17.3839L19.7855 17.3769C20.1781 16.859 20.9158 16.7551 21.4363 17.1455C21.9585 17.5371 22.0643 18.2778 21.6727 18.8L20.7273 18.0909C21.6727 18.8 21.6727 18.8 21.6727 18.8L21.6715 18.8016L21.6702 18.8034L21.6669 18.8077L21.6584 18.8188L21.6332 18.851C21.6128 18.8767 21.5852 18.9109 21.5506 18.9522C21.4812 19.0348 21.3832 19.1467 21.2574 19.2779C21.0067 19.5395 20.6405 19.8839 20.1667 20.2285C19.2237 20.9143 17.8029 21.6364 16 21.6364C14.1971 21.6364 12.7763 20.9143 11.8333 20.2285C11.3595 19.8839 10.9932 19.5395 10.7426 19.2779C10.6168 19.1467 10.5187 19.0348 10.4494 18.9522C10.4147 18.9109 10.3871 18.8767 10.3667 18.851L10.3416 18.8188L10.333 18.8077L10.3298 18.8034L10.3284 18.8016C10.3284 18.8016 10.3273 18.8 11.2727 18.0909L10.3273 18.8C9.93563 18.2778 10.0415 17.5371 10.5636 17.1455Z" fill="#F36B24"/>
<path d="M11.2726 12.1818C11.2726 11.5291 11.8018 11 12.4545 11H12.4663C13.119 11 13.6481 11.5291 13.6481 12.1818C13.6481 12.8345 13.119 13.3636 12.4663 13.3636H12.4545C11.8018 13.3636 11.2726 12.8345 11.2726 12.1818Z" fill="#F36B24"/>
<path d="M19.5454 11C18.8927 11 18.3635 11.5291 18.3635 12.1818C18.3635 12.8345 18.8927 13.3636 19.5454 13.3636H19.5572C20.2099 13.3636 20.739 12.8345 20.739 12.1818C20.739 11.5291 20.2099 11 19.5572 11H19.5454Z" fill="#F36B24"/>
</g>
</g>
</svg>
